# xmcd
#
# Track frame offsets: 
#        150
#        20157
#        40370
#        60657
#        81920
#        102672
#        128175
#        149367
#        168450
#        186212
#        204807
#        225800
#        245962
#        261475
#        282935
#        297992
#        316060
#
# Disc length: 4436 seconds
#
# Revision: 25
# Processed by: cddbd v1.5.2PL0 Copyright (c) Steve Scherf et al.
# Submitted via: ExactAudioCopyFreeDBPlugin 1.0
#
DISCID=02115211
DTITLE=Mötley Crüe - Greatest Hits
DYEAR=1998
DGENRE=Heavy Metal
TTITLE0=Bitter Pill
TTITLE1=Enslaved
TTITLE2=Girls, Girls, Girls
TTITLE3=Kickstart My Heart
TTITLE4=Wild Side
TTITLE5=Glitter (Remix)
TTITLE6=Dr. Feelgood
TTITLE7=Same Ol' Situation
TTITLE8=Home Sweet Home
TTITLE9=Afraid
TTITLE10=Don't Go Away Mad (Just Go Away)
TTITLE11=Without You
TTITLE12=Smokin' In The Boys Room
TTITLE13=Primal Scream
TTITLE14=Too Fast For Love
TTITLE15=Looks That Kill
TTITLE16=Shout At The Devil '97
EXTD=LABEL =Motley Records - Beyond Music\nID =63985-78002-2\nUPC =6
EXTD=39857-8
EXTT0=
EXTT1=
EXTT2=
EXTT3=
EXTT4=
EXTT5=
EXTT6=
EXTT7=
EXTT8=
EXTT9=
EXTT10=
EXTT11=
EXTT12=
EXTT13=
EXTT14=
EXTT15=
EXTT16=
PLAYORDER=
